# xmcd
#
# Track frame offsets: 
#        150
#        24140
#        41742
#        54737
#        77937
#        113530
#        131580
#        154177
#        174557
#        193740
#        210670
#        238944
#
# Disc length: 3369 seconds
#
# Revision: 0
# Processed by: cddbd v1.5.2PL0 Copyright (c) Steve Scherf et al.
# Submitted via: ExactAudioCopy v1.0b3
#
DISCID=a10d270c
DTITLE=Muddy Waters - Got My Mojo Workin'
DYEAR=1994
DGENRE=Blues
TTITLE0=Dust My Broom
TTITLE1=Walking Blues
TTITLE2=I'm A Hoochie Coochie Man
TTITLE3=Walking Through The Park
TTITLE4=Howlin' Wolf
TTITLE5=Blow Wind Blow
TTITLE6=Honey Bee
TTITLE7=Can't Get No Grindin'
TTITLE8=She's Nineteen Years Old
TTITLE9=Rollin' And Tumblin'
TTITLE10=Got My Mojo Workin'
TTITLE11=Everything Gonna Be Alright
EXTD=
EXTT0=
EXTT1=
EXTT2=
EXTT3=
EXTT4=
EXTT5=
EXTT6=
EXTT7=
EXTT8=
EXTT9=
EXTT10=
EXTT11=
PLAYORDER=
